<svg width="61" height="61" viewBox="0 0 61 61" fill="none" xmlns="http://www.w3.org/2000/svg">
<path d="M54.1414 7.7008C47.9409 2.19953 39.7349 0.966674 32.081 0.966674H29.6523C21.7222 0.966674 13.461 2.30974 7.61013 7.7008C2.12699 13.9014 0.875977 22.1258 0.875977 29.7796V32.135C0.875977 40.0467 2.2191 48.3814 7.61013 54.2322C13.8475 59.7522 22.1086 60.9667 29.7994 60.9667H31.9337C39.8823 60.9667 48.254 59.6416 54.1414 54.2322C59.6615 47.9948 60.876 39.7155 60.876 32.0245V29.8902C60.876 21.9418 59.5509 13.5703 54.1414 7.7008Z" fill="#FBFCFD"/>
<path d="M30.8727 36.859C28.135 36.859 25.908 34.6819 25.908 32.0053C25.908 29.329 28.135 27.1514 30.8727 27.1514C33.6102 27.1514 35.8374 29.329 35.8374 32.0053C35.8374 34.6819 33.6102 36.859 30.8727 36.859ZM27.4876 15.2431C27.4876 13.4182 29.0061 11.9338 30.8727 11.9338C32.7394 11.9338 34.2578 13.4182 34.2578 15.2431C34.2578 17.0681 32.7394 18.5525 30.8727 18.5525C29.0061 18.5525 27.4876 17.0681 27.4876 15.2431ZM17.7862 27.8481C17.3315 29.2164 16.0386 30.1364 14.5687 30.1364C14.2142 30.1364 13.8616 30.0813 13.5206 29.9729C11.7454 29.4088 10.7706 27.5382 11.3476 25.8023C11.8025 24.434 13.0961 23.5147 14.5665 23.5147C14.9204 23.5147 15.272 23.5698 15.6129 23.6777C16.4726 23.9509 17.1723 24.5354 17.583 25.3234C17.9933 26.1115 18.0657 27.0079 17.7862 27.8481ZM38.5455 32.0053C38.5455 28.2449 35.9245 25.2049 32.2278 24.6684V20.6975C34.7996 20.1847 36.5144 17.9071 36.5144 15.2431C36.5144 12.2016 33.9836 9.72735 30.8727 9.72735C27.7618 9.72735 25.2311 12.2016 25.2311 15.2431C25.2311 17.9071 27.3995 20.1847 29.9711 20.6975V24.6684C27.4549 25.0335 25.1106 26.5181 24.0123 28.6659L20.1738 27.4465C20.2994 26.3805 20.1037 25.3014 19.5937 24.3227C18.9097 23.0094 17.7433 22.0349 16.3103 21.5799C15.7443 21.3995 15.1575 21.3082 14.5665 21.3082C12.1153 21.3082 9.95926 22.8404 9.20118 25.1207C8.23985 28.0133 9.86498 31.1313 12.8232 32.0712C13.3901 32.2509 13.9771 32.3427 14.5687 32.3427C16.634 32.3427 18.4866 31.251 19.4726 29.5435L23.3141 30.7638C23.2447 31.1685 23.1999 31.5815 23.1999 32.0053C23.1999 36.142 26.6417 39.5069 30.8727 39.5069C35.1035 39.5069 38.5455 36.142 38.5455 32.0053ZM50.1942 28.327C49.7837 29.1155 49.0844 29.6995 48.2236 29.9729C47.8827 30.081 47.5307 30.136 47.1775 30.136C45.7071 30.136 44.4132 29.2164 43.9582 27.8481C43.3818 26.1127 44.3572 24.2417 46.1321 23.6777C46.4735 23.5698 46.8255 23.5147 47.1796 23.5147C48.6491 23.5147 49.943 24.4345 50.398 25.8031C50.6769 26.643 50.6047 27.5394 50.1942 28.327ZM52.5446 25.1211C51.7859 22.8404 49.6299 21.3082 47.1796 21.3082C46.5888 21.3082 46.0018 21.3995 45.435 21.5799C42.8437 22.4028 41.2759 24.897 41.5718 27.4473L39.9902 27.9499L40.6876 30.0483L42.2725 29.5443C43.2593 31.2514 45.112 32.3424 47.1775 32.3424C47.7683 32.3424 48.3552 32.2509 48.9208 32.0712C50.3548 31.616 51.5211 30.642 52.2054 29.3287C52.8889 28.0158 53.0094 26.5215 52.5446 25.1211ZM42.9395 48.2435C42.3576 48.6566 41.6709 48.8754 40.9537 48.8754C39.8713 48.8754 38.846 48.3656 38.2114 47.5112C37.1143 46.0354 37.4502 43.9609 38.9598 42.888C39.5428 42.4741 40.2295 42.2557 40.9462 42.2557C42.0284 42.2557 43.0536 42.7658 43.6887 43.6205C44.7852 45.0968 44.4495 47.1713 42.9395 48.2435ZM40.9462 40.0492C40.1317 40.0492 39.3428 40.2222 38.6147 40.5473L37.6354 39.2299L35.8098 40.5268L36.7872 41.8422C35.015 43.7355 34.7845 46.654 36.3857 48.8078C37.4437 50.2317 39.1509 51.0817 40.9537 51.0817C42.1508 51.0817 43.2959 50.7173 44.2662 50.0283C46.7823 48.2414 47.3423 44.7851 45.5144 42.3236C44.4563 40.8994 42.7482 40.0492 40.9462 40.0492ZM23.5336 47.5112C22.8986 48.3661 21.8733 48.8762 20.7917 48.8762C20.0752 48.8762 19.3878 48.6569 18.8051 48.2431C17.2951 47.1708 16.9592 45.0968 18.0566 43.6205C18.691 42.7661 19.7164 42.2563 20.7987 42.2563C21.5162 42.2563 22.2029 42.4746 22.7849 42.8885C24.2949 43.9609 24.6307 46.035 23.5336 47.5112ZM25.9346 40.526L24.109 39.2294L23.1298 40.5473C22.4018 40.2222 21.6129 40.05 20.7987 40.05C18.9962 40.05 17.2886 40.9002 16.2307 42.3239C14.4025 44.7841 14.9623 48.2404 17.4785 50.0283C18.4495 50.7178 19.5949 51.0822 20.7917 51.0822C22.5932 51.0822 24.3004 50.2325 25.3592 48.8083C26.961 46.653 26.73 43.7341 24.9574 41.8414L25.9346 40.526Z" fill="url(#paint0_linear)"/>
<defs>
<linearGradient id="paint0_linear" x1="45.2684" y1="17.4167" x2="16.0428" y2="48.7572" gradientUnits="userSpaceOnUse">
<stop stop-color="#00B5CB"/>
<stop offset="1" stop-color="#2370E1"/>
</linearGradient>
</defs>
</svg>
